Coordinates
version=1
nRows=12
nColumns=33
inDegrees=yes

Units are S.I. units (second, meters, Newtons, ...)
Angles are in degrees.

endheader
time	ground_thorax_rot_x	ground_thorax_rot_y	ground_thorax_rot_z	ground_thorax_tx	ground_thorax_ty	ground_thorax_tz	clav_prot_r	clav_elev_r	scapula_abduction_r	scapula_elevation_r	scapula_upward_rot_r	scapula_winging_r	shoulder_elv_r	plane_of_elev_r	axial_rot_r	elbow_flexion_r	pro_sup_r	wrist_flex_r	wrist_dev_r	clav_prot_l	clav_elev_l	scapula_abduction_l	scapula_elevation_l	scapula_upward_rot_l	scapula_winging_l	shoulder_elv_l	plane_of_elev_l	axial_rot_l	elbow_flexion_l	pro_sup_l	wrist_flex_l	wrist_dev_l
      5.23000000	    -90.00000000	     90.00000000	    -90.00000000	   -239.53067553	    827.99628574	      8.80602240	     26.71517601	     40.92745043	     45.00000000	     45.00000000	     15.24562637	   3223.21110941	  -1698.95381532	     25.96893136	   -149.56637704	    745.49896127	    165.26745421	     11.44215130	      5.25146750	    -45.00000000	      3.94834937	     34.88177835	    -13.85887765	    -45.00000000	  -3853.90097938	   1196.27530857	     11.15812994	   -158.26363980	   1808.34982056	     22.42105980	      7.16541929	    -22.89900365
      5.24000000	    -90.00000000	     90.00000000	    -90.00000000	   -238.45155318	    827.95318477	      9.02762989	     26.80161032	     40.81742127	     45.00000000	     45.00000000	     15.31203999	   3223.21946796	  -1699.17204091	     25.68718744	   -150.07160583	    745.44741746	    166.22982850	     11.33018373	      5.32965879	    -45.00000000	      3.88000274	     34.86497918	    -13.80093013	    -45.00000000	  -3853.84873438	   1196.20388107	     11.09723329	   -158.04959360	   1808.40852613	     22.06157429	      7.25702321	    -22.86790859
      5.25000000	    -90.00000000	     90.00000000	    -90.00000000	   -237.19964244	    827.89503328	      9.24226107	     26.85571218	     40.87765231	     45.00000000	     45.00000000	     14.91079321	   3222.84995761	  -1699.00639574	     25.90333841	   -150.36870660	    745.47616684	    167.21181200	     11.23813908	      5.22317711	    -45.00000000	      3.77595464	     34.78167134	    -13.69895618	    -45.00000000	  -3853.60391137	   1196.12121265	     11.13779375	   -157.84932912	   1808.36917424	     21.69111924	      7.37353954	    -22.82695356
      5.26000000	    -90.00000000	     90.00000000	    -90.00000000	   -235.76036479	    827.82057715	      9.45032257	     26.97005397	     40.70959139	     45.00000000	     45.00000000	     15.05697339	   3222.90680012	  -1699.36048333	     25.48584832	   -150.94038142	    745.41039988	    168.33116763	     11.11108363	      5.31879288	    -45.00000000	      3.62177472	     34.64954427	    -13.54852007	    -45.00000000	  -3853.31005706	   1195.97232563	     11.15028309	   -157.71979471	   1808.37911505	     21.29629974	      7.49869004	    -22.79038180
      5.27000000	    -90.00000000	     90.00000000	    -90.00000000	   -234.12823248	    827.72869070	      9.65209034	     27.05126232	     40.78620263	     45.00000000	     45.00000000	     14.76550236	   3222.68779277	  -1699.28350120	     25.49000232	   -151.24431691	    745.46399434	    169.67362565	     11.01060535	      5.20473674	    -45.00000000	      3.53782188	     34.91241725	    -13.54674733	    -45.00000000	  -3853.62712950	   1196.05490921	     11.05200765	   -157.48470081	   1808.80078803	     20.74694830	      7.58194208	    -22.81636737
      5.28000000	    -90.00000000	     90.00000000	    -90.00000000	   -232.29761582	    827.61666516	      9.84926481	     27.14723412	     40.73907076	     45.00000000	     45.00000000	     14.55741135	   3222.48199861	  -1699.32879246	     25.42920385	   -151.64581193	    745.41055607	    171.08710112	     10.87944667	      5.18350561	    -45.00000000	      3.42681862	     34.94282351	    -13.43569291	    -45.00000000	  -3853.44348858	   1195.98850530	     11.07187072	   -157.19831495	   1808.91641172	     20.19806007	      7.72919300	    -22.77990977
      5.29000000	    -90.00000000	     90.00000000	    -90.00000000	   -230.25586678	    827.47835944	     10.04459780	     27.25176633	     40.69250051	     45.00000000	     45.00000000	     14.35910594	   3222.24620306	  -1699.38792540	     25.36545694	   -152.04435420	    745.34245836	    172.52075226	     10.75274862	      5.14705710	    -45.00000000	      3.29308140	     34.90573076	    -13.31138411	    -45.00000000	  -3853.28162466	   1195.85504322	     11.02320694	   -156.97909810	   1809.00767296	     19.64329510	      7.87640378	    -22.72949267
      5.30000000	    -90.00000000	     90.00000000	    -90.00000000	   -228.00844078	    827.30527161	     10.23944526	     27.36258223	     40.66930249	     45.00000000	     45.00000000	     14.16931347	   3222.03549669	  -1699.47100300	     25.24768290	   -152.44846410	    745.23508996	    174.03895496	     10.62938450	      5.10030200	    -45.00000000	      3.14740576	     35.00857969	    -13.21993885	    -45.00000000	  -3853.23545386	   1195.79486753	     10.92850833	   -156.78220560	   1809.11066612	     19.05122959	      8.03281440	    -22.67215910
      5.31000000	    -90.00000000	     90.00000000	    -90.00000000	   -225.54888380	    827.08392293	     10.43592983	     27.48665680	     40.71111996	     45.00000000	     45.00000000	     13.98132390	   3221.78297911	  -1699.53971053	     25.05728700	   -152.78948200	    745.13841831	    175.86413117	     10.50127883	      5.03435766	    -45.00000000	      3.09484675	     35.16170832	    -13.22025202	    -45.00000000	  -3853.57435375	   1195.66850054	     10.47981884	   -156.56845174	   1808.96810179	     18.32293918	      8.19420720	    -22.54014916
      5.32000000	    -90.00000000	     90.00000000	    -90.00000000	   -222.87950257	    826.79867420	     10.63548871	     27.60160928	     40.68359165	     45.00000000	     45.00000000	     13.74478413	   3221.49411453	  -1699.58539881	     24.97795660	   -153.14956696	    745.10354976	    177.66614962	     10.34171063	      4.97954795	    -45.00000000	      2.92323658	     35.21941153	    -13.11140919	    -45.00000000	  -3853.44528010	   1195.51859462	     10.40703023	   -156.35447537	   1809.04984889	     17.56976908	      8.38325821	    -22.43736084
      5.33000000	    -90.00000000	     90.00000000	    -90.00000000	   -219.99335624	    826.42734071	     10.83688248	     27.72116287	     40.62936464	     45.00000000	     45.00000000	     13.55574503	   3221.16071149	  -1699.66317973	     24.84411983	   -153.58263460	    744.87013720	    179.34293980	     10.21554053	      4.92714521	    -45.00000000	      2.74452433	     35.30137601	    -12.93672178	    -45.00000000	  -3853.26266864	   1195.43521757	     10.32999923	   -156.09237484	   1809.15832380	     16.85183806	      8.60932153	    -22.33434409
      5.34000000	    -90.00000000	     90.00000000	    -90.00000000	   -216.89631511	    825.95430507	     11.04097192	     27.84423369	     40.59822579	     45.00000000	     45.00000000	     13.34449337	   3220.82446321	  -1699.73610949	     24.72845288	   -154.02070439	    744.73921861	    180.96873628	     10.06999942	      4.84713893	    -45.00000000	      2.57830830	     35.38566314	    -12.80876467	    -45.00000000	  -3853.11552286	   1195.28861767	     10.22769102	   -155.74830441	   1809.25440555	     16.12226593	      8.83658994	    -22.21242943
